<svg width="171" height="171" viewBox="0 0 171 171" fill="none" xmlns="http://www.w3.org/2000/svg">
<path d="M85.5 15.4114C108.329 15.4114 111.036 15.4969 120.056 15.9101C143.227 16.9646 154.05 27.9585 155.104 50.958C155.517 59.9711 155.596 62.6786 155.596 85.5071C155.596 108.343 155.51 111.043 155.104 120.056C154.042 143.034 143.248 154.05 120.056 155.104C111.036 155.517 108.343 155.603 85.5 155.603C62.6715 155.603 59.964 155.517 50.9509 155.104C27.7234 154.042 16.9575 142.999 15.903 120.049C15.4898 111.036 15.4043 108.336 15.4043 85.5C15.4043 62.6715 15.4969 59.9711 15.903 50.9509C16.9646 27.9585 27.759 16.9575 50.9509 15.903C59.9711 15.4969 62.6715 15.4114 85.5 15.4114ZM85.5 0C62.2796 0 59.3726 0.09975 50.2526 0.513C19.2019 1.938 1.94512 19.1663 0.520125 50.2455C0.09975 59.3726 0 62.2796 0 85.5C0 108.72 0.09975 111.634 0.513 120.754C1.938 151.805 19.1663 169.062 50.2455 170.487C59.3726 170.9 62.2796 171 85.5 171C108.72 171 111.634 170.9 120.754 170.487C151.777 169.062 169.076 151.834 170.48 120.754C170.9 111.634 171 108.72 171 85.5C171 62.2796 170.9 59.3726 170.487 50.2526C169.09 19.2304 151.841 1.94512 120.762 0.520125C111.634 0.09975 108.72 0 85.5 0ZM85.5 41.5957C61.2536 41.5957 41.5957 61.2536 41.5957 85.5C41.5957 109.746 61.2536 129.411 85.5 129.411C109.746 129.411 129.404 109.754 129.404 85.5C129.404 61.2536 109.746 41.5957 85.5 41.5957ZM85.5 114C69.7609 114 57 101.246 57 85.5C57 69.7609 69.7609 57 85.5 57C101.239 57 114 69.7609 114 85.5C114 101.246 101.239 114 85.5 114ZM131.143 29.6044C125.471 29.6044 120.876 34.2 120.876 39.8644C120.876 45.5287 125.471 50.1244 131.143 50.1244C136.807 50.1244 141.396 45.5287 141.396 39.8644C141.396 34.2 136.807 29.6044 131.143 29.6044Z" fill="white"/>
</svg>
