<svg width="206" height="228" viewBox="0 0 206 228" fill="none" xmlns="http://www.w3.org/2000/svg">
<path d="M15.4307 207.509C11.1444 207.509 7.50104 205.995 4.50062 202.969C1.50021 199.943 0 196.268 0 191.945V36.314C0 31.9909 1.50021 28.3163 4.50062 25.2901C7.50104 22.2639 11.1444 20.7509 15.4307 20.7509H68.1523C69.0096 14.6985 71.7528 9.72696 76.382 5.83618C81.0112 1.94539 86.412 0 92.5843 0C98.7566 0 104.157 1.94539 108.787 5.83618C113.416 9.72696 116.159 14.6985 117.016 20.7509H169.738C174.024 20.7509 177.667 22.2639 180.668 25.2901C183.668 28.3163 185.169 31.9909 185.169 36.314V121.652C182.768 120.268 180.239 119.144 177.582 118.28C174.924 117.415 172.31 116.724 169.738 116.205V36.314H15.4307V191.945H94.8989C95.5847 194.712 96.3562 197.392 97.2135 199.986C98.0707 202.58 99.0995 205.088 100.3 207.509H15.4307ZM15.4307 179.754V191.945V36.314V116.205V115.167V179.754ZM41.1486 166.007H95.4132C96.099 163.24 96.8706 160.56 97.7278 157.966C98.5851 155.372 99.6995 152.865 101.071 150.444H41.1486V166.007ZM41.1486 121.911H129.618C132.018 120.701 134.333 119.706 136.562 118.928C138.791 118.15 141.277 117.415 144.02 116.724V106.348H41.1486V121.911ZM41.1486 77.8157H144.02V62.2526H41.1486V77.8157ZM92.5843 31.9044C94.9846 31.9044 97.0849 30.9966 98.8851 29.1809C100.685 27.3652 101.586 25.2469 101.586 22.8259C101.586 20.405 100.685 18.2867 98.8851 16.471C97.0849 14.6553 94.9846 13.7474 92.5843 13.7474C90.1839 13.7474 88.0836 14.6553 86.2834 16.471C84.4831 18.2867 83.583 20.405 83.583 22.8259C83.583 25.2469 84.4831 27.3652 86.2834 29.1809C88.0836 30.9966 90.1839 31.9044 92.5843 31.9044ZM157.65 228C144.277 228 132.876 223.201 123.446 213.604C114.016 204.007 109.301 192.637 109.301 179.495C109.301 166.007 114.016 154.464 123.446 144.867C132.876 135.27 144.277 130.471 157.65 130.471C170.852 130.471 182.211 135.27 191.727 144.867C201.242 154.464 206 166.007 206 179.495C206 192.637 201.242 204.007 191.727 213.604C182.211 223.201 170.852 228 157.65 228ZM153.793 212.437H162.28V183.904H190.569V175.345H162.28V146.812H153.793V175.345H125.503V183.904H153.793V212.437Z" fill="#0D0D0D"/>
</svg>
