<svg width="178" height="198" viewBox="0 0 178 198" fill="none" xmlns="http://www.w3.org/2000/svg">
<path d="M14.8333 198C10.8778 198 7.41667 196.515 4.45 193.545C1.48333 190.575 0 187.11 0 183.15V29.7C0 25.74 1.48333 22.275 4.45 19.305C7.41667 16.335 10.8778 14.85 14.8333 14.85H30.9028V0H46.9722V14.85H131.028V0H147.097V14.85H163.167C167.122 14.85 170.583 16.335 173.55 19.305C176.517 22.275 178 25.74 178 29.7V183.15C178 187.11 176.517 190.575 173.55 193.545C170.583 196.515 167.122 198 163.167 198H14.8333ZM14.8333 183.15H163.167V76.725H14.8333V183.15ZM14.8333 61.875H163.167V29.7H14.8333V61.875ZM39.5556 113.85V99H138.444V113.85H39.5556ZM39.5556 158.4V143.55H108.531V158.4H39.5556Z" fill="white"/>
</svg>
